<svg width="24" height="24" viewBox="0 0 24 24" fill="none" xmlns="http://www.w3.org/2000/svg">
    <path fill-rule="evenodd" clip-rule="evenodd" d="M18.4489 1.98762C18.681 1.74537 18.9591 1.5519 19.267 1.41856C19.5748 1.28521 19.9062 1.21468 20.2416 1.21108C20.5771 1.20749 20.9099 1.27091 21.2205 1.39763C21.5311 1.52435 21.8133 1.71181 22.0505 1.94903C22.2878 2.18625 22.4752 2.46844 22.6019 2.77906C22.7287 3.08968 22.7921 3.42248 22.7885 3.75794C22.7849 4.09339 22.7143 4.42476 22.581 4.73259C22.4477 5.04043 22.2542 5.31854 22.0119 5.55062L17.7599 9.80262L17.7299 9.83262C17.4999 10.0626 17.3389 10.2246 17.1579 10.3646C16.9463 10.53 16.7173 10.6718 16.4749 10.7876C16.2689 10.8856 16.0529 10.9576 15.7429 11.0606L15.7029 11.0746L13.8649 11.6866C13.6488 11.7587 13.4168 11.7691 13.1951 11.7167C12.9733 11.6644 12.7705 11.5513 12.6094 11.3902C12.4483 11.2291 12.3352 11.0263 12.2828 10.8045C12.2305 10.5827 12.2409 10.3508 12.3129 10.1346L12.9249 8.29662L12.9389 8.25662C13.0419 7.94662 13.1139 7.73062 13.2119 7.52462C13.3286 7.28195 13.4696 7.05395 13.6349 6.84062C13.7749 6.66062 13.9359 6.50062 14.1669 6.26962L14.1969 6.23962L18.4489 1.98762ZM20.9509 3.04762C20.7597 2.85648 20.5003 2.74912 20.2299 2.74912C19.9595 2.74912 19.7002 2.85648 19.5089 3.04762L19.3779 3.17962L19.3939 3.22962C19.4759 3.46562 19.6319 3.77762 19.9269 4.07262C20.1759 4.32526 20.4823 4.51395 20.8199 4.62262L20.9509 4.49062C21.1421 4.29935 21.2494 4.04002 21.2494 3.76962C21.2494 3.49922 21.1421 3.23888 20.9509 3.04762ZM19.6859 5.75662C19.0813 5.41839 18.5822 4.91926 18.2439 4.31462L15.2579 7.29962C14.9859 7.57262 14.8939 7.66562 14.8179 7.76362C14.7195 7.8894 14.635 8.02554 14.5659 8.16962C14.5129 8.28262 14.4699 8.40562 14.3479 8.77162L14.1229 9.44662L14.5529 9.87662L15.2279 9.65062C15.5939 9.52962 15.7169 9.48662 15.8299 9.43362C15.974 9.36461 16.1102 9.28011 16.2359 9.18162C16.3339 9.10562 16.4269 9.01362 16.6999 8.74162L19.6859 5.75662Z" fill="#59B6B5"/>
    <path fill-rule="evenodd" clip-rule="evenodd" d="M12 1.25H11.943C9.634 1.25 7.825 1.25 6.413 1.44C4.969 1.634 3.829 2.04 2.934 2.934C2.039 3.829 1.634 4.969 1.44 6.414C1.25 7.825 1.25 9.634 1.25 11.943V12.057C1.25 14.366 1.25 16.175 1.44 17.587C1.634 19.031 2.04 20.171 2.934 21.066C3.829 21.961 4.969 22.366 6.414 22.56C7.825 22.75 9.634 22.75 11.943 22.75H12.057C14.366 22.75 16.175 22.75 17.587 22.56C19.031 22.366 20.171 21.96 21.066 21.066C21.961 20.171 22.366 19.031 22.56 17.586C22.75 16.175 22.75 14.366 22.75 12.057V12C22.75 11.8011 22.671 11.6103 22.5303 11.4697C22.3897 11.329 22.1989 11.25 22 11.25C21.8011 11.25 21.6103 11.329 21.4697 11.4697C21.329 11.6103 21.25 11.8011 21.25 12C21.25 14.378 21.248 16.086 21.074 17.386L21.052 17.538L18.278 15.041C17.6469 14.4732 16.8419 14.1363 15.9945 14.0854C15.1471 14.0346 14.3075 14.2727 13.613 14.761L13.315 14.971C13.0742 15.1399 12.7815 15.2184 12.4885 15.1928C12.1955 15.1672 11.9209 15.0391 11.713 14.831L7.423 10.541C6.87576 9.99398 6.14108 9.67539 5.36774 9.64977C4.59441 9.62414 3.84024 9.8934 3.258 10.403L2.751 10.846C2.756 9.054 2.781 7.693 2.926 6.614C3.098 5.335 3.426 4.564 3.995 3.994C4.565 3.425 5.335 3.098 6.614 2.926C7.914 2.752 9.622 2.75 12 2.75C12.1989 2.75 12.3897 2.67098 12.5303 2.53033C12.671 2.38968 12.75 2.19891 12.75 2C12.75 1.80109 12.671 1.61032 12.5303 1.46967C12.3897 1.32902 12.1989 1.25 12 1.25ZM2.926 17.386C3.098 18.665 3.426 19.436 3.995 20.006C4.565 20.575 5.335 20.902 6.614 21.074C7.914 21.248 9.622 21.25 12 21.25C14.378 21.25 16.086 21.248 17.386 21.074C18.665 20.902 19.436 20.574 20.006 20.005C20.2568 19.7546 20.4613 19.4617 20.61 19.14C20.5708 19.115 20.5334 19.0872 20.498 19.057L17.275 16.157C16.8965 15.8158 16.4134 15.6131 15.9047 15.5822C15.3961 15.5514 14.892 15.6941 14.475 15.987L14.178 16.197C13.6484 16.5693 13.0044 16.7429 12.3594 16.6871C11.7144 16.6313 11.1098 16.3497 10.652 15.892L6.362 11.602C6.08386 11.3239 5.71041 11.162 5.31732 11.149C4.92423 11.136 4.5409 11.2729 4.245 11.532L2.75 12.84C2.753 14.788 2.773 16.245 2.926 17.386Z" fill="#59B6B5"/>
</svg>
