<svg width="21" height="23" viewBox="0 0 21 23" fill="none" xmlns="http://www.w3.org/2000/svg">
<path d="M10.3938 2.39016C10.8559 1.91624 11.4076 1.53879 12.0167 1.27972C12.6258 1.02065 13.2804 0.885105 13.9423 0.880958C14.6042 0.87681 15.2604 1.00414 15.8727 1.25556C16.4851 1.50698 17.0414 1.87748 17.5094 2.34558C17.9774 2.81367 18.3479 3.37004 18.5992 3.98241C18.8505 4.59479 18.9778 5.25097 18.9735 5.91289C18.9693 6.57482 18.8336 7.22932 18.5745 7.83842C18.3153 8.44752 17.9378 8.9991 17.4638 9.46116L9.68681 17.2392C9.4091 17.5215 9.07825 17.746 8.71332 17.8999C8.34839 18.0537 7.95662 18.1337 7.56061 18.1354C7.16459 18.1371 6.77216 18.0603 6.40596 17.9095C6.03976 17.7588 5.70703 17.537 5.42697 17.257C5.14691 16.977 4.92505 16.6443 4.7742 16.2782C4.62335 15.912 4.5465 15.5196 4.54806 15.1236C4.54963 14.7276 4.62959 14.3358 4.78333 13.9708C4.93707 13.6058 5.16154 13.2749 5.44381 12.9972L13.2218 5.21916L14.6358 6.63316L6.85781 14.4112C6.7623 14.5034 6.68612 14.6138 6.63371 14.7358C6.5813 14.8578 6.55371 14.989 6.55256 15.1218C6.55141 15.2545 6.57671 15.3862 6.62699 15.5091C6.67727 15.632 6.75152 15.7437 6.84542 15.8376C6.93931 15.9314 7.05096 16.0057 7.17386 16.056C7.29675 16.1063 7.42843 16.1316 7.56121 16.1304C7.69399 16.1293 7.82521 16.1017 7.94722 16.0493C8.06922 15.9969 8.17956 15.9207 8.27181 15.8252L16.0508 8.04716C16.3294 7.76856 16.5504 7.43781 16.7012 7.07381C16.852 6.7098 16.9296 6.31966 16.9296 5.92566C16.9296 5.53166 16.852 5.14152 16.7012 4.77751C16.5504 4.4135 16.3294 4.08276 16.0508 3.80416C15.7722 3.52556 15.4415 3.30456 15.0775 3.15379C14.7134 3.00301 14.3233 2.92541 13.9293 2.92541C13.5353 2.92541 13.1452 3.00301 12.7812 3.15379C12.4172 3.30456 12.0864 3.52556 11.8078 3.80416L4.02981 11.5832C3.11902 12.5262 2.61505 13.7892 2.62644 15.1002C2.63783 16.4111 3.16368 17.6652 4.09072 18.5923C5.01776 19.5193 6.27182 20.0451 7.5828 20.0565C8.89379 20.0679 10.1568 19.5639 11.0998 18.6532L19.5858 10.1682L20.9998 11.5832L12.5148 20.0682C11.202 21.381 9.42142 22.1185 7.56481 22.1185C5.7082 22.1185 3.92763 21.381 2.61481 20.0682C1.30199 18.7553 0.564453 16.9748 0.564453 15.1182C0.564453 13.2615 1.30199 11.481 2.61481 10.1682L10.3938 2.39016Z" fill="#FF7A01"/>
</svg>
