<svg width="24" height="24" viewBox="0 0 24 24" fill="none" xmlns="http://www.w3.org/2000/svg">
<path d="M11.998 2C8.99 2 7.04 4.019 4.734 4.755C3.796 5.055 3.327 5.204 3.137 5.415C2.947 5.625 2.892 5.934 2.781 6.55C1.591 13.146 4.191 19.244 10.391 21.618C11.056 21.873 11.389 22 12.001 22C12.613 22 12.947 21.872 13.613 21.617C19.812 19.244 22.409 13.146 21.219 6.55C21.108 5.934 21.052 5.625 20.862 5.414C20.672 5.203 20.204 5.054 19.266 4.755C16.959 4.019 15.006 2 11.998 2Z" stroke="black" stroke-width="1.5" stroke-linecap="round" stroke-linejoin="round"/>
<path d="M10.25 9.95848C10.25 9.89848 10.258 9.55248 10.26 9.11848C10.26 8.72048 10.226 8.33848 10.416 7.98848C11.126 6.57448 13.166 6.71848 13.67 8.15848C13.757 8.39548 13.763 8.77048 13.76 9.11848C13.757 9.56148 13.766 9.95848 13.766 9.95848M10.337 10.3795C9.257 10.3795 8.717 11.1595 8.597 11.6395C8.477 12.1195 8.477 13.8595 8.549 14.5795C8.789 15.4795 9.389 15.8515 9.977 15.9715C10.517 16.0195 12.797 16.0015 13.457 16.0015C14.417 16.0195 15.137 15.6595 15.437 14.5795C15.497 14.2195 15.557 12.2395 15.407 11.6395C15.089 10.6795 14.297 10.3795 13.697 10.3795H10.337Z" stroke="black" stroke-width="1.5" stroke-linecap="round" stroke-linejoin="round"/>
</svg>
