<svg width="24" height="25" viewBox="0 0 24 25" fill="none" xmlns="http://www.w3.org/2000/svg">
    <path d="M5.636 6.136C4.16366 7.60833 3.24737 9.54562 3.04327 11.6178C2.83916 13.69 3.35987 15.7688 4.51666 17.5001C5.67346 19.2314 7.39477 20.508 9.3873 21.1124C11.3798 21.7169 13.5203 21.6117 15.444 20.8149C17.3677 20.0181 18.9556 18.579 19.9372 16.7426C20.9187 14.9063 21.2332 12.7864 20.827 10.7443C20.4208 8.70207 19.3191 6.8639 17.7095 5.54295C16.1 4.22201 14.0822 3.50002 12 3.5V5.5M12 12.5L6 6.5M21 12.5H19M12 19.5V21.5M5 12.5H3" stroke="#017783" stroke-width="2" stroke-linecap="round"/>
</svg>
