<svg width="22" height="20" viewBox="0 0 22 20" fill="none" xmlns="http://www.w3.org/2000/svg">
<path fill-rule="evenodd" clip-rule="evenodd" d="M15.3334 0.25C15.6207 0.25 15.8962 0.364137 16.0994 0.567301C16.3025 0.770465 16.4167 1.04602 16.4167 1.33333V2.41667H20.75C21.0373 2.41667 21.3129 2.5308 21.5161 2.73397C21.7192 2.93713 21.8334 3.21268 21.8334 3.5C21.8334 3.78732 21.7192 4.06287 21.5161 4.26603C21.3129 4.4692 21.0373 4.58333 20.75 4.58333H16.4167V5.66667C16.4167 5.95398 16.3025 6.22953 16.0994 6.4327C15.8962 6.63586 15.6207 6.75 15.3334 6.75C15.046 6.75 14.7705 6.63586 14.5673 6.4327C14.3642 6.22953 14.25 5.95398 14.25 5.66667V1.33333C14.25 1.04602 14.3642 0.770465 14.5673 0.567301C14.7705 0.364137 15.046 0.25 15.3334 0.25ZM0.166687 3.5C0.166687 3.21268 0.280824 2.93713 0.483988 2.73397C0.687152 2.5308 0.962702 2.41667 1.25002 2.41667H11C11.2873 2.41667 11.5629 2.5308 11.7661 2.73397C11.9692 2.93713 12.0834 3.21268 12.0834 3.5C12.0834 3.78732 11.9692 4.06287 11.7661 4.26603C11.5629 4.4692 11.2873 4.58333 11 4.58333H1.25002C0.962702 4.58333 0.687152 4.4692 0.483988 4.26603C0.280824 4.06287 0.166687 3.78732 0.166687 3.5ZM6.66669 6.75C6.954 6.75 7.22955 6.86414 7.43272 7.0673C7.63588 7.27047 7.75002 7.54602 7.75002 7.83333V12.1667C7.75002 12.454 7.63588 12.7295 7.43272 12.9327C7.22955 13.1359 6.954 13.25 6.66669 13.25C6.37937 13.25 6.10382 13.1359 5.90065 12.9327C5.69749 12.7295 5.58335 12.454 5.58335 12.1667V11.0833H1.25002C0.962702 11.0833 0.687152 10.9692 0.483988 10.766C0.280824 10.5629 0.166687 10.2873 0.166687 10C0.166687 9.71268 0.280824 9.43713 0.483988 9.23397C0.687152 9.0308 0.962702 8.91667 1.25002 8.91667H5.58335V7.83333C5.58335 7.54602 5.69749 7.27047 5.90065 7.0673C6.10382 6.86414 6.37937 6.75 6.66669 6.75ZM9.91669 10C9.91669 9.71268 10.0308 9.43713 10.234 9.23397C10.4372 9.0308 10.7127 8.91667 11 8.91667H20.75C21.0373 8.91667 21.3129 9.0308 21.5161 9.23397C21.7192 9.43713 21.8334 9.71268 21.8334 10C21.8334 10.2873 21.7192 10.5629 21.5161 10.766C21.3129 10.9692 21.0373 11.0833 20.75 11.0833H11C10.7127 11.0833 10.4372 10.9692 10.234 10.766C10.0308 10.5629 9.91669 10.2873 9.91669 10ZM15.3334 13.25C15.6207 13.25 15.8962 13.3641 16.0994 13.5673C16.3025 13.7705 16.4167 14.046 16.4167 14.3333V15.4167H20.75C21.0373 15.4167 21.3129 15.5308 21.5161 15.734C21.7192 15.9371 21.8334 16.2127 21.8334 16.5C21.8334 16.7873 21.7192 17.0629 21.5161 17.266C21.3129 17.4692 21.0373 17.5833 20.75 17.5833H16.4167V18.6667C16.4167 18.954 16.3025 19.2295 16.0994 19.4327C15.8962 19.6359 15.6207 19.75 15.3334 19.75C15.046 19.75 14.7705 19.6359 14.5673 19.4327C14.3642 19.2295 14.25 18.954 14.25 18.6667V14.3333C14.25 14.046 14.3642 13.7705 14.5673 13.5673C14.7705 13.3641 15.046 13.25 15.3334 13.25ZM0.166687 16.5C0.166687 16.2127 0.280824 15.9371 0.483988 15.734C0.687152 15.5308 0.962702 15.4167 1.25002 15.4167H11C11.2873 15.4167 11.5629 15.5308 11.7661 15.734C11.9692 15.9371 12.0834 16.2127 12.0834 16.5C12.0834 16.7873 11.9692 17.0629 11.7661 17.266C11.5629 17.4692 11.2873 17.5833 11 17.5833H1.25002C0.962702 17.5833 0.687152 17.4692 0.483988 17.266C0.280824 17.0629 0.166687 16.7873 0.166687 16.5Z" fill="#FF7A01"/>
</svg>
