<svg width="22" height="23" viewBox="0 0 22 23" fill="none" xmlns="http://www.w3.org/2000/svg">
    <path d="M9.00054 17.5H13.0005M1.35154 12.714C0.99854 10.416 0.82154 9.268 1.25654 8.249C1.69054 7.231 2.65454 6.534 4.58154 5.141L6.02154 4.1C8.41854 2.367 9.61754 1.5 11.0005 1.5C12.3835 1.5 13.5825 2.367 15.9795 4.1L17.4195 5.141C19.3465 6.534 20.3095 7.231 20.7445 8.249C21.1785 9.268 21.0025 10.416 20.6495 12.713L20.3485 14.673C19.8485 17.929 19.5975 19.557 18.4295 20.529C17.2615 21.501 15.5545 21.5 12.1395 21.5H9.86054C6.44554 21.5 4.73854 21.5 3.57054 20.529C2.40254 19.557 2.15254 17.929 1.65154 14.672L1.35154 12.714Z" stroke="white" stroke-width="1.5" stroke-linecap="round" stroke-linejoin="round"/>
</svg>
