<svg width="36" height="36" viewBox="0 0 36 36" fill="none" xmlns="http://www.w3.org/2000/svg">
<path d="M14.3998 18H7.22505C6.94872 18.0009 6.6811 18.0967 6.46709 18.2715C6.25307 18.4463 6.10568 18.6894 6.04965 18.96L5.30745 22.56C5.27187 22.7343 5.27549 22.9144 5.31806 23.0871C5.36063 23.2599 5.44107 23.421 5.55358 23.5588C5.66608 23.6966 5.80782 23.8077 5.96854 23.884C6.12926 23.9603 6.30493 23.9999 6.48285 24H13.657C13.9333 23.999 14.2009 23.9031 14.4149 23.7283C14.6289 23.5536 14.7763 23.3105 14.8324 23.04L15.5752 19.44C15.6108 19.2657 15.6072 19.0856 15.5646 18.9129C15.5221 18.7401 15.4416 18.579 15.3291 18.4412C15.2166 18.3034 15.0749 18.1923 14.9142 18.116C14.7534 18.0397 14.5778 18.0001 14.3998 18ZM13.657 22.8H6.48285L7.22505 19.2H14.3998L13.657 22.8Z" fill="#592B00"/>
<path d="M34.2 4.80039H22.8V4.20039C22.8 3.723 22.6104 3.26516 22.2728 2.9276C21.9352 2.59003 21.4774 2.40039 21 2.40039H9C8.52261 2.40039 8.06477 2.59003 7.72721 2.9276C7.38964 3.26516 7.2 3.723 7.2 4.20039V6.60039H2.4C1.76348 6.60039 1.15303 6.85325 0.702944 7.30333C0.252856 7.75342 0 8.36387 0 9.00039L0 31.6144H0.003C0.00411282 32.1418 0.214532 32.6472 0.588036 33.0196C0.96154 33.392 1.46758 33.6009 1.995 33.6004H27.216C27.7397 33.5986 28.2469 33.4174 28.6531 33.0869C29.0593 32.7564 29.3398 32.2966 29.448 31.7842L31.8 20.4004H34.2C34.6774 20.4004 35.1352 20.2107 35.4728 19.8732C35.8104 19.5356 36 19.0778 36 18.6004V6.60039C36 6.123 35.8104 5.66516 35.4728 5.3276C35.1352 4.99003 34.6774 4.80039 34.2 4.80039ZM26.4 6.00039H30V9.00039H26.4V6.00039ZM26.4 10.2004H30V15.0004H26.4V10.2004ZM22.2 6.00039H25.2V15.0004H21.6V6.60039C21.6 6.44126 21.6632 6.28865 21.7757 6.17613C21.8883 6.06361 22.0409 6.00039 22.2 6.00039ZM8.4 4.20039C8.4 4.04126 8.46321 3.88865 8.57574 3.77613C8.68826 3.6636 8.84087 3.60039 9 3.60039H21C21.1591 3.60039 21.3117 3.6636 21.4243 3.77613C21.5368 3.88865 21.6 4.04126 21.6 4.20039V4.91079C21.2503 5.03444 20.9473 5.26313 20.7325 5.56557C20.5177 5.86801 20.4015 6.22943 20.4 6.60039V12.6454L18.78 10.6654C18.6619 10.5197 18.5128 10.4024 18.3434 10.3219C18.1741 10.2415 17.9889 10.1999 17.8014 10.2004C17.6142 10.1999 17.4293 10.2414 17.2603 10.3217C17.0913 10.4021 16.9424 10.5193 16.8246 10.6648L14.919 12.9916L13.02 10.672C12.9038 10.5256 12.7561 10.4073 12.588 10.3256C12.4198 10.244 12.2355 10.2012 12.0486 10.2004H12.0408C11.8531 10.2004 11.6677 10.2424 11.4983 10.3233C11.3289 10.4042 11.1797 10.5219 11.0616 10.6678L8.4 13.9204V4.20039ZM20.4 14.5414V15.0004H16.56L15.6912 13.939L17.7498 11.4256H17.8482L20.4 14.5414ZM15.0114 15.0004H9.0666L11.9904 11.4262H12.0876L15.0114 15.0004ZM1.2 9.00039C1.2 8.68213 1.32643 8.37691 1.55147 8.15186C1.77652 7.92682 2.08174 7.80039 2.4 7.80039H7.2V15.0004H5.2506C4.72697 15.0022 4.21979 15.1835 3.81363 15.514C3.40747 15.8445 3.12686 16.3043 3.0186 16.8166L1.2 25.6048V9.00039ZM31.1772 17.494L28.2732 31.54C28.2227 31.7831 28.09 32.0013 27.8975 32.158C27.7049 32.3148 27.4643 32.4003 27.216 32.4004H1.995C1.8769 32.4006 1.76024 32.3745 1.6535 32.3239C1.54675 32.2734 1.45261 32.1997 1.37791 32.1082C1.30321 32.0167 1.24984 31.9098 1.22166 31.7951C1.19347 31.6804 1.1912 31.5609 1.215 31.4452L4.194 17.0608C4.24278 16.817 4.37491 16.5978 4.56771 16.4408C4.76052 16.2837 5.00196 16.1988 5.2506 16.2004H30.12C30.2798 16.2007 30.4375 16.2364 30.5818 16.3051C30.726 16.3737 30.8533 16.4735 30.9544 16.5972C31.0554 16.7209 31.1278 16.8655 31.1662 17.0206C31.2047 17.1757 31.2082 17.3374 31.1766 17.494H31.1772ZM34.8 18.6004C34.8 18.7595 34.7368 18.9121 34.6243 19.0247C34.5117 19.1372 34.3591 19.2004 34.2 19.2004H32.049L32.349 17.7388C32.4515 17.2602 32.3948 16.7611 32.1873 16.3177C31.9799 15.8744 31.6332 15.511 31.2 15.283V6.00039H34.2C34.3591 6.00039 34.5117 6.06361 34.6243 6.17613C34.7368 6.28865 34.8 6.44126 34.8 6.60039V18.6004Z" fill="#592B00"/>
<path d="M23.3998 8.4002C23.7312 8.4002 23.9998 8.13157 23.9998 7.8002C23.9998 7.46882 23.7312 7.2002 23.3998 7.2002C23.0684 7.2002 22.7998 7.46882 22.7998 7.8002C22.7998 8.13157 23.0684 8.4002 23.3998 8.4002Z" fill="#592B00"/>
<path d="M23.3998 10.8006C23.7312 10.8006 23.9998 10.532 23.9998 10.2006C23.9998 9.86922 23.7312 9.60059 23.3998 9.60059C23.0684 9.60059 22.7998 9.86922 22.7998 10.2006C22.7998 10.532 23.0684 10.8006 23.3998 10.8006Z" fill="#592B00"/>
<path d="M23.3998 13.2C23.7312 13.2 23.9998 12.9314 23.9998 12.6C23.9998 12.2686 23.7312 12 23.3998 12C23.0684 12 22.7998 12.2686 22.7998 12.6C22.7998 12.9314 23.0684 13.2 23.3998 13.2Z" fill="#592B00"/>
<path d="M32.9999 8.4002C33.3313 8.4002 33.5999 8.13157 33.5999 7.8002C33.5999 7.46882 33.3313 7.2002 32.9999 7.2002C32.6685 7.2002 32.3999 7.46882 32.3999 7.8002C32.3999 8.13157 32.6685 8.4002 32.9999 8.4002Z" fill="#592B00"/>
<path d="M32.9999 10.8006C33.3313 10.8006 33.5999 10.532 33.5999 10.2006C33.5999 9.86922 33.3313 9.60059 32.9999 9.60059C32.6685 9.60059 32.3999 9.86922 32.3999 10.2006C32.3999 10.532 32.6685 10.8006 32.9999 10.8006Z" fill="#592B00"/>
<path d="M32.9999 13.2C33.3313 13.2 33.5999 12.9314 33.5999 12.6C33.5999 12.2686 33.3313 12 32.9999 12C32.6685 12 32.3999 12.2686 32.3999 12.6C32.3999 12.9314 32.6685 13.2 32.9999 13.2Z" fill="#592B00"/>
<path d="M32.9999 15.6004C33.3313 15.6004 33.5999 15.3318 33.5999 15.0004C33.5999 14.669 33.3313 14.4004 32.9999 14.4004C32.6685 14.4004 32.3999 14.669 32.3999 15.0004C32.3999 15.3318 32.6685 15.6004 32.9999 15.6004Z" fill="#592B00"/>
<path d="M13.8001 6.90078C13.8001 6.48544 13.6769 6.07943 13.4462 5.73408C13.2154 5.38874 12.8875 5.11958 12.5037 4.96064C12.12 4.80169 11.6978 4.7601 11.2904 4.84113C10.883 4.92216 10.5089 5.12217 10.2152 5.41586C9.92148 5.70955 9.72148 6.08373 9.64045 6.49109C9.55942 6.89845 9.60101 7.32069 9.75995 7.70442C9.9189 8.08814 10.1881 8.41612 10.5334 8.64687C10.8787 8.87762 11.2848 9.00078 11.7001 9.00078C12.2571 9.00078 12.7912 8.77953 13.185 8.38571C13.5788 7.99188 13.8001 7.45774 13.8001 6.90078ZM10.8001 6.90078C10.8001 6.72278 10.8529 6.54877 10.9518 6.40077C11.0507 6.25277 11.1912 6.13741 11.3557 6.06929C11.5201 6.00117 11.7011 5.98335 11.8757 6.01808C12.0503 6.0528 12.2106 6.13852 12.3365 6.26439C12.4624 6.39025 12.5481 6.55062 12.5828 6.7252C12.6175 6.89978 12.5997 7.08074 12.5316 7.2452C12.4635 7.40965 12.3481 7.55021 12.2001 7.64911C12.0521 7.748 11.8781 7.80078 11.7001 7.80078C11.4614 7.80078 11.2325 7.70596 11.0637 7.53718C10.8949 7.3684 10.8001 7.13948 10.8001 6.90078Z" fill="#592B00"/>
</svg>
