<svg width="32" height="26" viewBox="0 0 32 26" fill="none" xmlns="http://www.w3.org/2000/svg">
<path d="M26.8984 7.24352C26.8981 7.24142 26.8981 7.23928 26.8984 7.23719C26.8316 6.72806 26.7003 6.22952 26.5075 5.7536C26.5075 5.74938 26.504 5.74446 26.5019 5.73953C25.9632 4.41531 24.9746 3.32356 23.7102 2.65644C22.4458 1.98932 20.9866 1.7896 19.5895 2.09242C19.4327 2.12617 19.2773 2.16274 19.1247 2.21266C18.1469 2.5096 17.2596 3.04813 16.5449 3.77852C17.0134 3.83954 17.4444 4.06701 17.7591 4.41941C18.0738 4.77181 18.2513 5.22564 18.2591 5.69805V5.83867C18.2676 6.361 18.0686 6.86536 17.7057 7.24115C17.3428 7.61694 16.8457 7.83349 16.3234 7.84328L14.8082 7.8693V8.0268C14.8082 9.63687 15.4478 11.181 16.5863 12.3195C17.7248 13.458 19.2689 14.0976 20.879 14.0976C22.4891 14.0976 24.0332 13.458 25.1717 12.3195C26.3102 11.181 26.9498 9.63687 26.9498 8.0268C26.9492 7.76488 26.932 7.50327 26.8984 7.24352ZM21.232 11.4813V12.3313C21.232 12.4246 21.1949 12.514 21.129 12.5799C21.0631 12.6459 20.9736 12.6829 20.8804 12.6829C20.7872 12.6829 20.6977 12.6459 20.6318 12.5799C20.5659 12.514 20.5288 12.4246 20.5288 12.3313V11.482C20.2165 11.4242 19.9234 11.2897 19.6759 11.0906C19.4283 10.8916 19.2341 10.6341 19.1106 10.3415C19.0743 10.2555 19.0735 10.1586 19.1086 10.0721C19.1437 9.98563 19.2117 9.9166 19.2977 9.88024C19.3836 9.84387 19.4805 9.84315 19.567 9.87822C19.6535 9.9133 19.7225 9.9813 19.7589 10.0673C19.844 10.2703 19.9825 10.4464 20.1597 10.5769C20.3369 10.7074 20.5462 10.7874 20.7653 10.8084C20.9844 10.8294 21.205 10.7906 21.4038 10.6962C21.6026 10.6017 21.7721 10.4551 21.8941 10.272C22.0162 10.0889 22.0864 9.87608 22.0971 9.65626C22.1078 9.43643 22.0588 9.21781 21.9551 9.02366C21.8515 8.82951 21.6971 8.6671 21.5085 8.55371C21.3198 8.44033 21.104 8.38021 20.8839 8.37977C20.4057 8.37898 19.9451 8.19983 19.592 7.87734C19.2389 7.55485 19.0189 7.11224 18.9749 6.63609C18.931 6.15995 19.0662 5.68453 19.3543 5.30284C19.6423 4.92116 20.0624 4.66067 20.5323 4.57235V3.71875C20.5323 3.62551 20.5694 3.53609 20.6353 3.47016C20.7012 3.40423 20.7907 3.36719 20.8839 3.36719C20.9771 3.36719 21.0666 3.40423 21.1325 3.47016C21.1984 3.53609 21.2355 3.62551 21.2355 3.71875V4.56813C21.5253 4.62132 21.799 4.74084 22.035 4.91734C22.271 5.09384 22.463 5.32254 22.596 5.58555C22.6382 5.66861 22.6456 5.76499 22.6168 5.85354C22.5879 5.94209 22.5251 6.01557 22.4421 6.05786C22.3591 6.10014 22.2628 6.10777 22.1742 6.07907C22.0856 6.05036 22.012 5.98768 21.9695 5.90477C21.8715 5.71184 21.7239 5.54854 21.5417 5.43167C21.3596 5.31481 21.1496 5.24861 20.9334 5.23989C20.7172 5.23118 20.5026 5.28027 20.3117 5.3821C20.1207 5.48393 19.9604 5.63483 19.8472 5.81924C19.734 6.00365 19.672 6.21491 19.6676 6.43125C19.6632 6.6476 19.7165 6.86121 19.8221 7.05007C19.9277 7.23893 20.0818 7.39623 20.2684 7.50574C20.4551 7.61526 20.6675 7.67304 20.8839 7.67313C21.3627 7.67298 21.8243 7.85172 22.1782 8.17431C22.532 8.49689 22.7526 8.94004 22.7966 9.41684C22.8406 9.89363 22.7049 10.3697 22.4161 10.7516C22.1273 11.1335 21.7062 11.3937 21.2355 11.4813H21.232Z" fill="#FCFCFC"/>
<path d="M17.5581 5.71059V5.85121C17.5634 6.18729 17.4352 6.51174 17.2017 6.75347C16.9681 6.99519 16.6482 7.13446 16.3122 7.14074L12.907 7.20051C12.438 7.20824 9.67258 7.47402 8.76414 7.9198C7.81546 8.38776 6.7725 8.63305 5.71469 8.63699H4.92086V2.35527C5.54945 2.31379 6.8418 2.21043 7.29109 2.03254C8.19531 1.67395 10.0037 1.02496 11.9219 0.71207C14.1824 0.343633 15.9353 0.534883 17.1334 1.27949C17.1545 1.29215 17.2038 1.32379 18.1628 1.8202C17.1681 2.25817 16.2927 2.92793 15.6098 3.77348L11.8663 3.83887C11.7731 3.83961 11.684 3.87737 11.6186 3.94383C11.5532 4.01028 11.5168 4.1 11.5176 4.19324C11.5183 4.28648 11.5561 4.37561 11.6225 4.44101C11.689 4.50641 11.7787 4.54274 11.872 4.54199H11.8783L15.7715 4.47168C15.7808 4.47238 15.7902 4.47238 15.7996 4.47168L16.2672 4.46324H16.2897C16.6224 4.46338 16.9418 4.59418 17.179 4.82747C17.4163 5.06077 17.5524 5.3779 17.5581 5.71059ZM0.53125 0.165039V10.8448H4.21773V0.165039H0.53125ZM2.72641 9.38582C2.72641 9.47906 2.68937 9.56848 2.62344 9.63441C2.55751 9.70034 2.46808 9.73738 2.37484 9.73738C2.2816 9.73738 2.19218 9.70034 2.12625 9.63441C2.06032 9.56848 2.02328 9.47906 2.02328 9.38582V6.81801C2.02328 6.72477 2.06032 6.63535 2.12625 6.56942C2.19218 6.50348 2.2816 6.46645 2.37484 6.46645C2.46808 6.46645 2.55751 6.50348 2.62344 6.56942C2.68937 6.63535 2.72641 6.72477 2.72641 6.81801V9.38582ZM27.0791 17.3649V23.6452C26.4498 23.686 25.1582 23.7893 24.7089 23.9672C23.8026 24.3258 21.9963 24.9748 20.0767 25.2877C17.8162 25.6561 16.0633 25.4656 14.8666 24.721C14.6191 24.567 7.315 20.8264 6.4825 20.3996C6.1666 20.2385 5.92761 19.9586 5.8181 19.6214C5.70859 19.2842 5.73753 18.9172 5.89855 18.6013C6.05958 18.2854 6.3395 18.0464 6.67674 17.9369C7.01397 17.8274 7.3809 17.8564 7.6968 18.0174L13.9855 21.2222C14.1562 21.5298 14.4059 21.7862 14.7089 21.9649C15.0119 22.1435 15.3572 22.2379 15.7089 22.2382H15.7434L20.1323 22.1616C20.1784 22.1608 20.224 22.1509 20.2663 22.1326C20.3087 22.1142 20.347 22.0876 20.3791 22.0544C20.4112 22.0212 20.4364 21.982 20.4534 21.9391C20.4703 21.8961 20.4786 21.8502 20.4779 21.8041C20.4771 21.7579 20.4672 21.7123 20.4488 21.67C20.4304 21.6276 20.4039 21.5893 20.3707 21.5572C20.3375 21.5251 20.2983 21.4999 20.2553 21.483C20.2124 21.466 20.1665 21.4577 20.1203 21.4585L15.7314 21.5351H15.7089C15.3769 21.5343 15.0585 21.4033 14.8219 21.1704C14.5853 20.9375 14.4494 20.6211 14.4433 20.2892V20.1486C14.438 19.8125 14.5662 19.488 14.7998 19.2463C15.0333 19.0046 15.3532 18.8653 15.6892 18.859L19.0945 18.7993C19.5634 18.7915 22.3288 18.5257 23.2373 18.08C24.1859 17.612 25.2289 17.3667 26.2867 17.3628L27.0791 17.3649ZM27.7823 15.155V25.8347H31.4688V15.155H27.7823ZM29.9767 19.1818C29.9767 19.275 29.9397 19.3644 29.8737 19.4304C29.8078 19.4963 29.7184 19.5333 29.6252 19.5333C29.5319 19.5333 29.4425 19.4963 29.3766 19.4304C29.3106 19.3644 29.2736 19.275 29.2736 19.1818V16.6139C29.2736 16.5207 29.3106 16.4313 29.3766 16.3654C29.4425 16.2994 29.5319 16.2624 29.6252 16.2624C29.7184 16.2624 29.8078 16.2994 29.8737 16.3654C29.9397 16.4313 29.9767 16.5207 29.9767 16.6139V19.1818Z" fill="#FCFCFC"/>
</svg>
