<svg width="23" height="21" viewBox="0 0 23 21" fill="none" xmlns="http://www.w3.org/2000/svg">
    <path d="M7.83333 13.0004H14.8333M7.83333 8.00042H11.3333M13.5033 19.3904C17.6873 19.1134 21.0193 15.7334 21.2933 11.4904C21.3463 10.6604 21.3463 9.80042 21.2933 8.97042C21.0193 4.72842 17.6873 1.35042 13.5033 1.07142C12.0582 0.976192 10.6084 0.976192 9.16333 1.07142C4.97933 1.34942 1.64733 4.72842 1.37333 8.97142C1.32036 9.81059 1.32036 10.6523 1.37333 11.4914C1.47333 13.0364 2.15633 14.4674 2.96133 15.6754C3.42833 16.5204 3.12033 17.5754 2.63333 18.4984C2.28333 19.1634 2.10733 19.4954 2.24833 19.7354C2.38833 19.9754 2.70333 19.9834 3.33233 19.9984C4.57733 20.0284 5.41633 19.6764 6.08233 19.1854C6.45933 18.9064 6.64833 18.7674 6.77833 18.7514C6.90833 18.7354 7.16533 18.8414 7.67733 19.0514C8.13733 19.2414 8.67233 19.3584 9.16233 19.3914C10.5873 19.4854 12.0763 19.4854 13.5043 19.3914" stroke="white" stroke-width="1.5" stroke-linecap="round" stroke-linejoin="round"/>
</svg>
