<svg width="14" height="14" viewBox="0 0 14 14" fill="none" xmlns="http://www.w3.org/2000/svg">
<g clip-path="url(#clip0_139_1522)">
<path d="M13.3781 10.7676L11.1772 6.06837C11.1538 6.01963 11.1121 5.98209 11.0612 5.96393C11.0103 5.94577 10.9543 5.94844 10.9053 5.97137C10.8564 5.9943 10.8184 6.03564 10.7998 6.08638C10.7811 6.13713 10.7833 6.19318 10.8058 6.24236L13.0066 10.9414C13.105 11.152 13.0139 11.4034 12.8035 11.502L8.58385 13.4781C8.37344 13.5767 8.12201 13.4857 8.02338 13.2752L7.23448 11.5903L9.28782 6.63611C9.3317 6.52987 9.35314 6.4157 9.3508 6.30078C9.34846 6.18586 9.3224 6.07266 9.27423 5.96829L8.15108 3.54215L9.60695 4.00273C9.66249 4.02033 9.71379 4.04925 9.7576 4.08766C9.80141 4.12607 9.83678 4.17314 9.8615 4.22591L10.4008 5.37692C10.4239 5.42618 10.4655 5.46424 10.5167 5.48276C10.5678 5.50127 10.6242 5.49871 10.6735 5.47563C10.6979 5.46421 10.7198 5.44809 10.738 5.42819C10.7561 5.4083 10.7702 5.38503 10.7793 5.3597C10.7885 5.33437 10.7926 5.30748 10.7914 5.28058C10.7901 5.25367 10.7836 5.22727 10.7722 5.20288L10.233 4.05206C10.1842 3.94793 10.1144 3.85504 10.0279 3.77923C9.94141 3.70343 9.84017 3.64636 9.73055 3.61163L7.97479 3.05616C8.33677 2.52739 8.71808 1.8203 8.84928 1.50374C9.19332 0.673688 8.91564 0.212068 8.54109 0.0568096C8.1665 -0.0983945 7.64371 0.0314618 7.29967 0.861513C7.15171 1.21852 7.01595 1.99601 6.9194 2.66301C6.802 2.67022 6.68638 2.69524 6.57651 2.73722L3.92013 3.75217C3.8146 3.79271 3.71841 3.85425 3.63736 3.93306C3.55632 4.01187 3.49211 4.1063 3.44864 4.21065L0.607468 11.0659C0.522401 11.2711 0.522347 11.4972 0.607332 11.7025C0.692289 11.9077 0.852114 12.0676 1.05733 12.1527L1.88831 12.4971C1.91319 12.5074 1.93986 12.5127 1.9668 12.5127C1.99373 12.5127 2.0204 12.5074 2.04529 12.4971C2.07017 12.4868 2.09279 12.4717 2.11183 12.4527C2.13088 12.4336 2.146 12.411 2.15631 12.3861C2.16662 12.3612 2.17193 12.3346 2.17194 12.3076C2.17195 12.2807 2.16665 12.254 2.15635 12.2291C2.14605 12.2043 2.13094 12.1817 2.1119 12.1626C2.09286 12.1436 2.07026 12.1284 2.04538 12.1181L1.21439 11.7737C1.1104 11.7306 1.02938 11.6496 0.986318 11.5455C0.943252 11.4415 0.943279 11.327 0.9864 11.2229L3.82765 4.3676C3.84969 4.31472 3.88223 4.26685 3.9233 4.22691C3.96437 4.18697 4.01313 4.15578 4.06661 4.13524L6.72299 3.12028C6.76789 3.10314 6.81432 3.09031 6.86165 3.08198C6.8403 3.2443 6.82003 3.40676 6.80086 3.56935C6.71272 3.57444 6.62635 3.59633 6.54643 3.63386C6.37881 3.71233 6.2518 3.85141 6.1888 4.02542C6.12577 4.19947 6.1343 4.38759 6.21278 4.55521C6.33044 4.8065 6.58064 4.95421 6.84136 4.95421C6.93961 4.95421 7.03941 4.93321 7.13413 4.88886C7.30175 4.81038 7.42876 4.67129 7.49179 4.4973C7.55479 4.32325 7.54629 4.13513 7.46781 3.96751C7.40935 3.84271 7.31725 3.7405 7.20219 3.67036C7.21745 3.53977 7.24072 3.34718 7.27025 3.12299C7.44777 3.19217 7.59952 3.327 7.68484 3.51133L8.90197 6.14053C8.92638 6.19342 8.9396 6.2508 8.94078 6.30904C8.94196 6.36729 8.93108 6.42515 8.90883 6.47899L6.0695 13.3297C6.04844 13.3809 6.01743 13.4275 5.97826 13.4666C5.9391 13.5058 5.89256 13.5367 5.84134 13.5578C5.79023 13.5791 5.73541 13.5901 5.68003 13.5901C5.62466 13.5901 5.56983 13.5791 5.51874 13.5577L2.98125 12.5061C2.93112 12.4859 2.87505 12.4863 2.82521 12.5072C2.77538 12.5281 2.73582 12.5678 2.71513 12.6178C2.69443 12.6677 2.69428 12.7238 2.7147 12.7738C2.73512 12.8238 2.77447 12.8638 2.82418 12.885L5.36167 13.9367C5.46225 13.9785 5.5701 14 5.67903 14C6.00548 14 6.31587 13.8066 6.4484 13.4867L7.02178 12.1034L7.65189 13.4492C7.79317 13.7507 8.09349 13.928 8.40633 13.928C8.5243 13.928 8.64412 13.9028 8.75781 13.8495L12.9774 11.8735C13.3926 11.679 13.5723 11.1829 13.3781 10.7676ZM7.1061 4.35762C7.09355 4.39258 7.07419 4.4247 7.04914 4.45213C7.02409 4.47955 6.99385 4.50173 6.96017 4.51739C6.81902 4.58351 6.65036 4.52243 6.58425 4.38128C6.56841 4.34768 6.55938 4.31128 6.5577 4.27418C6.55602 4.23708 6.56172 4.20001 6.57446 4.16512C6.58701 4.13017 6.60637 4.09805 6.63141 4.07063C6.65646 4.0432 6.68669 4.02102 6.72036 4.00535C6.75781 3.98772 6.79868 3.97856 6.84008 3.97853C6.87253 3.97853 6.90507 3.98419 6.93649 3.99556C6.97144 4.00812 7.00356 4.02747 7.03098 4.05252C7.05841 4.07756 7.0806 4.1078 7.09626 4.14147C7.11213 4.17505 7.12117 4.21145 7.12286 4.24856C7.12455 4.28567 7.11885 4.32274 7.1061 4.35762ZM7.62288 2.84422C7.53098 2.78601 7.43151 2.74073 7.32726 2.70966C7.41974 2.06962 7.54659 1.33738 7.67871 1.01852C7.77176 0.793947 8.0268 0.287702 8.3841 0.435714C8.74138 0.583809 8.56351 1.1221 8.4704 1.34665C8.34429 1.65093 7.97244 2.33858 7.62288 2.84422Z" fill="#FF3535"/>
<path d="M4.22222 6.91557C4.66655 6.67907 5.17641 6.62972 5.65788 6.77675C6.45702 7.02071 6.99343 7.74543 6.99266 8.58012C6.99264 8.60706 6.99791 8.63373 7.0082 8.65863C7.01848 8.68352 7.03357 8.70614 7.0526 8.72521C7.07163 8.74427 7.09422 8.7594 7.1191 8.76973C7.14397 8.78006 7.17064 8.78539 7.19757 8.78542H7.19777C7.25213 8.78541 7.30426 8.76382 7.34272 8.7254C7.38118 8.68698 7.40281 8.63487 7.40287 8.5805C7.40331 8.0989 7.24666 7.61822 6.96179 7.22699C6.66711 6.82233 6.25763 6.53095 5.77761 6.38439C4.56741 6.01498 3.28233 6.69895 2.91295 7.9091C2.73398 8.49535 2.79403 9.11617 3.08204 9.65725C3.37002 10.1983 3.85144 10.5949 4.43766 10.7738C4.65493 10.8402 4.88085 10.8739 5.10802 10.8739C5.43099 10.8739 5.75032 10.8057 6.04506 10.6736C6.54592 10.4493 6.94992 10.0536 7.18267 9.55952C7.19415 9.53516 7.20072 9.50877 7.20201 9.48187C7.20329 9.45496 7.19926 9.42807 7.19015 9.40273C7.18104 9.37738 7.16703 9.35408 7.14891 9.33415C7.13079 9.31422 7.10893 9.29805 7.08456 9.28657C7.0602 9.27509 7.03381 9.26852 7.00691 9.26724C6.98001 9.26596 6.95311 9.26998 6.92777 9.27909C6.90242 9.28821 6.87912 9.30222 6.85919 9.32034C6.83926 9.33845 6.8231 9.36032 6.81162 9.38468C6.41601 10.2245 5.447 10.6531 4.55748 10.3815C4.07604 10.2345 3.68068 9.90886 3.44415 9.46453C3.20766 9.02019 3.15833 8.51031 3.30533 8.02887C3.45222 7.54746 3.77791 7.15207 4.22222 6.91557Z" fill="#FF3535"/>
<path d="M5.89652 8.01999C5.87251 7.97453 5.83971 7.9343 5.80002 7.90162C5.76034 7.86893 5.71457 7.84445 5.66536 7.82959L5.5722 7.80115L5.6355 7.59378C5.65066 7.54197 5.64479 7.48627 5.61915 7.43876C5.59352 7.39125 5.55018 7.35576 5.49855 7.34C5.44692 7.32423 5.39115 7.32946 5.34335 7.35454C5.29555 7.37962 5.25956 7.42254 5.24319 7.47398L5.17847 7.68606C4.90522 7.63889 4.63233 7.80121 4.54934 8.07317C4.52771 8.14333 4.52022 8.21708 4.52729 8.29015C4.53435 8.36323 4.55585 8.43418 4.59052 8.49889C4.62484 8.56379 4.67168 8.62124 4.72835 8.66791C4.78501 8.71458 4.85037 8.74955 4.92065 8.7708L5.17883 8.8496C5.19752 8.85525 5.2149 8.86455 5.22998 8.87696C5.24505 8.88938 5.25751 8.90466 5.26663 8.92193C5.27585 8.93914 5.28156 8.95801 5.28344 8.97745C5.28532 8.99688 5.28332 9.0165 5.27757 9.03516C5.27191 9.05384 5.26261 9.07122 5.2502 9.08629C5.23778 9.10136 5.2225 9.11381 5.20524 9.12293C5.18804 9.13216 5.16917 9.13788 5.14974 9.13976C5.1303 9.14164 5.11069 9.13964 5.09204 9.13387L4.96297 9.09447L4.6909 9.01142C4.70144 8.95981 4.69172 8.90612 4.66376 8.86148C4.63579 8.81684 4.59172 8.78467 4.54069 8.77163C4.48965 8.75859 4.43555 8.76569 4.3896 8.79145C4.34365 8.81721 4.30937 8.85966 4.29387 8.91C4.2309 9.11634 4.34749 9.33545 4.55385 9.39848L4.64704 9.42691L4.58374 9.63429C4.56868 9.68607 4.57461 9.7417 4.60026 9.78914C4.62591 9.83658 4.66922 9.87201 4.7208 9.88775C4.77237 9.9035 4.82808 9.8983 4.87585 9.87328C4.92362 9.84825 4.95962 9.80542 4.97604 9.75406L5.04071 9.54219C5.07243 9.54772 5.10432 9.55081 5.13614 9.55081C5.22646 9.55081 5.31601 9.52866 5.39799 9.48502C5.46289 9.45071 5.52034 9.40386 5.56701 9.34719C5.61368 9.29053 5.64865 9.22517 5.6699 9.1549C5.75986 8.86018 5.59331 8.54723 5.29859 8.45727L5.04041 8.37847C5.02173 8.37281 5.00435 8.36351 4.98928 8.3511C4.97421 8.33868 4.96176 8.3234 4.95264 8.30614C4.94341 8.28893 4.9377 8.27006 4.93582 8.25062C4.93394 8.23118 4.93594 8.21157 4.9417 8.19291C4.95324 8.15523 4.97926 8.12366 5.01405 8.10515C5.04884 8.08663 5.08956 8.08268 5.12726 8.09417L5.25624 8.13355L5.25632 8.13357H5.25637L5.52836 8.21662C5.51769 8.26828 5.52733 8.32208 5.55528 8.36682C5.58324 8.41156 5.62736 8.44381 5.67848 8.45686C5.72959 8.46991 5.78377 8.46277 5.82976 8.43691C5.87574 8.41105 5.91 8.36847 5.9254 8.31801C5.94053 8.26889 5.94576 8.21726 5.94081 8.16611C5.93585 8.11495 5.9208 8.06529 5.89652 8.01999ZM12.0198 10.7563L10.7071 7.96702C10.6835 7.91854 10.6418 7.8813 10.5909 7.86338C10.5401 7.84545 10.4842 7.84827 10.4354 7.87123C10.3866 7.89419 10.3488 7.93544 10.3302 7.98605C10.3116 8.03667 10.3137 8.09257 10.336 8.14167L11.6486 10.931C11.6652 10.9662 11.6915 10.996 11.7244 11.0169C11.7572 11.0378 11.7954 11.0488 11.8343 11.0488C11.8689 11.0488 11.9028 11.04 11.9331 11.0234C11.9634 11.0067 11.9889 10.9827 12.0074 10.9535C12.0259 10.9244 12.0367 10.891 12.0389 10.8565C12.041 10.8221 12.0345 10.7876 12.0198 10.7563ZM11.1027 11.2468L9.79013 8.45743C9.76697 8.40822 9.72521 8.37022 9.67403 8.35179C9.62286 8.33337 9.56646 8.33603 9.51724 8.35919C9.46802 8.38235 9.43002 8.42411 9.4116 8.47529C9.39317 8.52646 9.39583 8.58286 9.41899 8.63208L10.7316 11.4214C10.7482 11.4567 10.7745 11.4865 10.8073 11.5073C10.8402 11.5282 10.8784 11.5393 10.9173 11.5392C10.9519 11.5392 10.9858 11.5305 11.0161 11.5138C11.0464 11.4971 11.0719 11.4731 11.0904 11.4439C11.1089 11.4148 11.1197 11.3814 11.1219 11.3469C11.124 11.3125 11.1175 11.278 11.1027 11.2468Z" fill="#FF3535"/>
</g>
<defs>
<clipPath id="clip0_139_1522">
<rect width="14" height="14" fill="white"/>
</clipPath>
</defs>
</svg>
