<svg width="18" height="21" viewBox="0 0 18 21" fill="none" xmlns="http://www.w3.org/2000/svg">
    <path d="M12 15.5H17L15.5951 14.0951C15.2141 13.7141 15 13.1973 15 12.6585V9.5C15 6.88757 13.3304 4.66509 11 3.84142V3.5C11 2.39543 10.1046 1.5 9 1.5C7.89543 1.5 7 2.39543 7 3.5V3.84142C4.66962 4.66509 3 6.88757 3 9.5V12.6585C3 13.1973 2.78595 13.7141 2.40493 14.0951L1 15.5H6M12 15.5V16.5C12 18.1569 10.6569 19.5 9 19.5C7.34315 19.5 6 18.1569 6 16.5V15.5M12 15.5H6" stroke="#017783" stroke-width="2" stroke-linecap="round" stroke-linejoin="round"/>
</svg>
