<svg width="24" height="24" viewBox="0 0 24 24" fill="none" xmlns="http://www.w3.org/2000/svg">
<path d="M11.9996 2.90039C17.0253 2.90039 21.1 6.97439 21.1002 12C21.1002 17.0258 17.0254 21.1006 11.9996 21.1006C6.974 21.1004 2.9 17.0257 2.9 12C2.90021 6.97452 6.97413 2.9006 11.9996 2.90039ZM11.9996 12.7002C9.37634 12.7003 7.11724 14.2547 6.09043 16.4902L5.95566 16.7822L6.16563 17.0254C7.57684 18.6624 9.66741 19.7001 11.9996 19.7002C14.3319 19.7002 16.4233 18.6624 17.8346 17.0254L18.0436 16.7822L17.9098 16.4902C16.8829 14.2545 14.6231 12.7002 11.9996 12.7002ZM11.9996 5.5C10.3982 5.50021 9.1002 6.7989 9.1002 8.40039C9.1002 10.0019 10.3982 11.3006 11.9996 11.3008C13.6012 11.3008 14.9 10.002 14.9 8.40039C14.9 6.79876 13.6012 5.5 11.9996 5.5Z" stroke="#592B00"/>
</svg>
