<svg width="21" height="21" viewBox="0 0 21 21" fill="none" xmlns="http://www.w3.org/2000/svg">
    <path d="M12.1667 9H10.1667V7H12.1667V9ZM12.1667 5H10.1667V0H12.1667V5ZM6.16667 17C5.06667 17 4.17667 17.9 4.17667 19C4.17667 20.1 5.06667 21 6.16667 21C7.26667 21 8.16667 20.1 8.16667 19C8.16667 17.9 7.26667 17 6.16667 17ZM16.1667 17C15.0667 17 14.1767 17.9 14.1767 19C14.1767 20.1 15.0667 21 16.1667 21C17.2667 21 18.1667 20.1 18.1667 19C18.1667 17.9 17.2667 17 16.1667 17ZM7.26667 12H14.7167C15.4667 12 16.1267 11.59 16.4667 10.97L20.1667 3.96L18.4167 3L14.7167 10H7.69667L3.43667 1H0.166672V3H2.16667L5.76667 10.59L4.41667 13.03C3.68667 14.37 4.64667 16 6.16667 16H18.1667V14H6.16667L7.26667 12Z" fill="white"/>
</svg>
