<svg width="20" height="21" viewBox="0 0 20 21" fill="none" xmlns="http://www.w3.org/2000/svg">
    <path d="M6.557 12H2.682C2.16859 12.0029 1.67721 12.2089 1.3152 12.573C0.953191 12.937 0.749993 13.4296 0.750001 13.943V17.818C0.749738 18.0718 0.799531 18.3231 0.89653 18.5577C0.993529 18.7922 1.13583 19.0053 1.31528 19.1847C1.49474 19.3642 1.70783 19.5065 1.94235 19.6035C2.17687 19.7005 2.42821 19.7503 2.682 19.75H6.557C7.07048 19.7505 7.56324 19.5475 7.92726 19.1853C8.29128 18.8232 8.49688 18.3315 8.499 17.818V13.943C8.49926 13.6879 8.44921 13.4353 8.35171 13.1995C8.25421 12.9638 8.11117 12.7496 7.93079 12.5692C7.75041 12.3888 7.53622 12.2458 7.30048 12.1483C7.06475 12.0508 6.8121 12.0007 6.557 12.001M6.557 1.25H2.682C2.42821 1.24974 2.17687 1.29953 1.94235 1.39653C1.70783 1.49353 1.49474 1.63583 1.31528 1.81528C1.13583 1.99474 0.993529 2.20783 0.89653 2.44235C0.799531 2.67687 0.749738 2.92821 0.750001 3.182V7.057C0.749467 7.57048 0.952527 8.06324 1.31468 8.42726C1.67683 8.79128 2.16852 8.99688 2.682 8.999H6.557C6.8121 8.99926 7.06475 8.94921 7.30048 8.85171C7.53622 8.75421 7.75041 8.61117 7.93079 8.43079C8.11117 8.25041 8.25421 8.03622 8.35171 7.80048C8.44921 7.56475 8.49926 7.3121 8.499 7.057V3.182C8.49688 2.66852 8.29128 2.17683 7.92726 1.81468C7.56324 1.45253 7.07048 1.24947 6.557 1.25ZM17.318 1.25H13.443C12.9295 1.24947 12.4368 1.45253 12.0727 1.81468C11.7087 2.17683 11.5031 2.66852 11.501 3.182V7.057C11.5013 7.57197 11.706 8.06577 12.0701 8.42991C12.4342 8.79405 12.928 8.99874 13.443 8.999H17.318C17.8315 8.99688 18.3232 8.79128 18.6853 8.42726C19.0475 8.06324 19.2505 7.57048 19.25 7.057V3.182C19.2503 2.92821 19.2005 2.67687 19.1035 2.44235C19.0065 2.20783 18.8642 1.99474 18.6847 1.81528C18.5053 1.63583 18.2922 1.49353 18.0577 1.39653C17.8231 1.29953 17.5718 1.24974 17.318 1.25Z" stroke="white" stroke-width="1.5" stroke-linecap="round" stroke-linejoin="round"/>
    <path d="M15.368 12.3169V19.4329M11.817 15.8829H18.933" stroke="white" stroke-width="1.5" stroke-miterlimit="10" stroke-linecap="round"/>
</svg>
