<svg width="36" height="36" viewBox="0 0 36 36" fill="none" xmlns="http://www.w3.org/2000/svg">
<path d="M17.25 18.3662C21.8063 18.3662 25.5 14.6726 25.5 10.1162C25.5 5.55986 21.8063 1.86621 17.25 1.86621C12.6937 1.86621 9 5.55986 9 10.1162C9 14.6726 12.6937 18.3662 17.25 18.3662Z" fill="#FF3535"/>
<path fill-rule="evenodd" clip-rule="evenodd" d="M30.2278 20.6818L20.6818 30.2278C20.471 30.4387 20.3525 30.7247 20.3525 31.0228C20.3525 31.321 20.471 31.607 20.6818 31.8178C20.8927 32.0287 21.1787 32.1471 21.4768 32.1471C21.775 32.1471 22.061 32.0287 22.2718 31.8178L31.8178 22.2718C32.0287 22.061 32.1471 21.775 32.1471 21.4768C32.1471 21.1787 32.0287 20.8927 31.8178 20.6818C31.607 20.471 31.321 20.3525 31.0228 20.3525C30.7247 20.3525 30.4387 20.471 30.2278 20.6818Z" fill="#FF3535"/>
<path fill-rule="evenodd" clip-rule="evenodd" d="M26.25 18.375C21.903 18.375 18.375 21.903 18.375 26.25C18.375 30.597 21.903 34.125 26.25 34.125C30.597 34.125 34.125 30.597 34.125 26.25C34.125 21.903 30.597 18.375 26.25 18.375ZM26.25 20.625C29.355 20.625 31.875 23.145 31.875 26.25C31.875 29.355 29.355 31.875 26.25 31.875C23.145 31.875 20.625 29.355 20.625 26.25C20.625 23.145 23.145 20.625 26.25 20.625Z" fill="#FF3535"/>
<path fill-rule="evenodd" clip-rule="evenodd" d="M19.3875 32.6342C17.7704 30.902 16.8722 28.6199 16.875 26.2502C16.875 23.7257 17.8755 21.4322 19.5015 19.7462C18.7665 19.6892 18.015 19.6592 17.25 19.6592C12.267 19.6592 7.8555 20.9057 5.1165 22.7732C3.027 24.1982 1.875 26.0087 1.875 27.9092V30.0842C1.87441 30.4192 1.93996 30.7511 2.0679 31.0607C2.19584 31.3704 2.38365 31.6517 2.62056 31.8886C2.85747 32.1255 3.13881 32.3133 3.44846 32.4413C3.75811 32.5692 4.08997 32.6348 4.425 32.6342H19.3875Z" fill="#FF3535"/>
</svg>
