<svg width="45" height="41" viewBox="0 0 45 41" fill="none" xmlns="http://www.w3.org/2000/svg">
<path d="M44.6373 11.4838L42.0373 30.0738C41.9725 31.056 41.6955 32.0125 41.2253 32.8773C40.7551 33.7421 40.103 34.4947 39.3138 35.0831C39.2145 35.152 39.0985 35.1929 38.9779 35.2015C38.8573 35.2101 38.7366 35.1861 38.6285 35.1321C38.5204 35.078 38.4288 34.9959 38.3634 34.8942C38.2979 34.7926 38.261 34.6752 38.2565 34.5544V15.9406C38.3687 14.7269 38.2121 13.5035 37.7979 12.3572C37.3836 11.2109 36.7219 10.17 35.8597 9.30843C34.9976 8.44689 33.9562 7.78591 32.8096 7.37248C31.663 6.95906 30.4394 6.80335 29.2258 6.91644H8.83316C8.18316 6.91644 8.168 6.33144 8.2135 6.07144C8.39641 4.30892 9.26105 2.68772 10.6228 1.55394C11.3917 1.03859 12.256 0.682406 13.1647 0.506394C14.0734 0.330382 15.0082 0.338104 15.9138 0.529104L38.796 3.73577C39.7222 3.80314 40.6255 4.05524 41.4527 4.47722C42.2799 4.8992 43.0143 5.48251 43.6125 6.19277C44.1289 6.96116 44.4856 7.82543 44.6617 8.7343C44.8377 9.64318 44.8294 10.5782 44.6373 11.4838ZM35 15.9406V34.7213C35.1117 35.5057 35.0393 36.3054 34.7887 37.0571C34.5381 37.8088 34.116 38.492 33.5559 39.0525C32.9959 39.613 32.3131 40.0355 31.5615 40.2867C30.81 40.5379 30.0104 40.6108 29.2258 40.4998H6.11183C5.32686 40.6121 4.52652 40.54 3.77422 40.2893C3.02193 40.0386 2.33834 39.6162 1.77763 39.0555C1.21692 38.4948 0.794487 37.8112 0.543797 37.0589C0.293107 36.3066 0.221049 35.5062 0.333332 34.7213V15.9406C0.221797 15.156 0.294414 14.3561 0.545438 13.6044C0.796462 12.8527 1.219 12.1697 1.77962 11.6095C2.34023 11.0493 3.02354 10.6273 3.77546 10.3768C4.52738 10.1263 5.32727 10.0543 6.11183 10.1664H29.2258C30.01 10.0555 30.8092 10.1284 31.5603 10.3794C32.3115 10.6303 32.994 11.0525 33.554 11.6125C34.114 12.1725 34.5361 12.855 34.7871 13.6061C35.038 14.3573 35.1109 15.1565 35 15.9406ZM24.7083 25.3331C24.7083 24.9021 24.5371 24.4888 24.2324 24.1841C23.9276 23.8793 23.5143 23.7081 23.0833 23.7081H19.2917V19.9164C19.2917 19.4855 19.1205 19.0721 18.8157 18.7674C18.511 18.4626 18.0976 18.2914 17.6667 18.2914C17.2357 18.2914 16.8224 18.4626 16.5176 18.7674C16.2129 19.0721 16.0417 19.4855 16.0417 19.9164V23.7081H12.25C11.819 23.7081 11.4057 23.8793 11.1009 24.1841C10.7962 24.4888 10.625 24.9021 10.625 25.3331C10.625 25.7641 10.7962 26.1774 11.1009 26.4822C11.4057 26.7869 11.819 26.9581 12.25 26.9581H16.0417V30.7498C16.0417 31.1807 16.2129 31.5941 16.5176 31.8988C16.8224 32.2036 17.2357 32.3748 17.6667 32.3748C18.0976 32.3748 18.511 32.2036 18.8157 31.8988C19.1205 31.5941 19.2917 31.1807 19.2917 30.7498V26.9581H23.0833C23.5143 26.9581 23.9276 26.7869 24.2324 26.4822C24.5371 26.1774 24.7083 25.7641 24.7083 25.3331Z" fill="#FF7A01"/>
</svg>
