<svg width="20" height="19" viewBox="0 0 20 19" fill="none" xmlns="http://www.w3.org/2000/svg">
    <path d="M10 1C11.0738 1 12.0866 1.18928 13.042 1.56543C14.0047 1.94448 14.8622 2.46865 15.6182 3.1377C16.3732 3.80601 16.9957 4.59587 17.4844 5.51074C17.9681 6.41635 18.2825 7.40251 18.4268 8.47266L18.501 9.75391L18.5176 10.0498L18.7861 10.1768C19.0126 10.284 19.1826 10.4401 19.3066 10.6523C19.4389 10.8787 19.5004 11.1084 19.5 11.3486V13.6504C19.4999 13.8915 19.4377 14.1218 19.3057 14.3486C19.1825 14.5601 19.0131 14.716 18.7861 14.8232L18.5 14.958V16.5C18.5 16.9163 18.3579 17.2606 18.0596 17.5596C17.7616 17.858 17.4176 18.0004 17.001 18H9.5V17H17.5V9.40039C17.5 7.32007 16.7698 5.53736 15.3164 4.08398C13.8631 2.63082 12.0807 1.9011 10 1.90039C7.91895 1.89972 6.1373 2.63012 4.68457 4.08496C3.23227 5.53941 2.50148 7.32063 2.5 9.39941V15H2C1.58354 15 1.23963 14.8578 0.941406 14.5596C0.680391 14.2986 0.538542 14.0021 0.506836 13.6523L0.5 13.499V11.5C0.5 11.238 0.56443 10.9942 0.697266 10.7607C0.827551 10.5319 1.00962 10.3481 1.25195 10.207L1.48438 10.0713L1.49902 9.80371L1.57324 8.49414C1.70047 7.42728 2.01046 6.44359 2.50195 5.53906C3.00123 4.62034 3.6257 3.82322 4.37402 3.14551C5.11879 2.47107 5.97381 1.94395 6.94336 1.56543C7.90828 1.18875 8.92625 1 10 1ZM7 10C7.155 10 7.26434 10.0473 7.36035 10.1426C7.45429 10.2359 7.50101 10.3424 7.5 10.4961C7.49888 10.655 7.45059 10.7668 7.35645 10.8623C7.26633 10.9537 7.15981 11.0007 7.00195 11H7C6.84307 11 6.73538 10.9523 6.64258 10.8594C6.54874 10.7652 6.50041 10.656 6.5 10.499C6.49963 10.344 6.54669 10.2363 6.64062 10.1426C6.7358 10.0477 6.84488 10 7 10ZM13 10C13.155 10 13.2643 10.0473 13.3604 10.1426C13.4543 10.2359 13.501 10.3424 13.5 10.4961C13.4989 10.655 13.4506 10.7668 13.3564 10.8623C13.2663 10.9537 13.1598 11.0007 13.002 11H13C12.8431 11 12.7354 10.9523 12.6426 10.8594C12.5487 10.7652 12.5004 10.656 12.5 10.499C12.4996 10.344 12.5467 10.2363 12.6406 10.1426C12.7358 10.0477 12.8449 10 13 10ZM8.31543 4.25C8.04413 5.38187 7.54241 6.39543 6.80176 7.29492C6.15815 8.07656 5.39705 8.69608 4.51855 9.16211C4.58628 7.85416 5.0752 6.72068 5.99023 5.74121C6.66441 5.01955 7.43676 4.52292 8.31543 4.25ZM10.0498 4C11.4173 4 12.6083 4.43072 13.6426 5.2959C14.5133 6.02439 15.0879 6.91941 15.375 7.99316C14.193 7.88619 13.0963 7.51529 12.0791 6.87695C10.947 6.16644 10.0647 5.21938 9.42773 4.0293C9.63024 4.0097 9.83758 4.00001 10.0498 4Z" fill="#0A0A0A" stroke="#0A0A0A"/>
</svg>
